<svg width="227" height="20" viewBox="0 0 227 20" fill="none" xmlns="http://www.w3.org/2000/svg">
<path fill-rule="evenodd" clip-rule="evenodd" d="M10.3109 16.6667C13.9699 16.6667 16.9361 13.682 16.9361 10.0001C16.9361 6.31818 13.9699 3.33341 10.3109 3.33341C6.65184 3.33341 3.68561 6.31818 3.68561 10.0001C3.68561 13.682 6.65184 16.6667 10.3109 16.6667ZM10.3109 18.3334C14.8846 18.3334 18.5924 14.6024 18.5924 10.0001C18.5924 5.39771 14.8846 1.66675 10.3109 1.66675C5.73708 1.66675 2.0293 5.39771 2.0293 10.0001C2.0293 14.6024 5.73708 18.3334 10.3109 18.3334Z" fill="white"/>
<path d="M10.3109 8.33325C10.3109 7.87302 10.6817 7.49992 11.1391 7.49992H11.9672C12.4246 7.49992 12.7954 7.12683 12.7954 6.66659C12.7954 6.20635 12.4246 5.83325 11.9672 5.83325H11.1391C9.7669 5.83325 8.65461 6.95254 8.65461 8.33325V9.99992H7.82645C7.36907 9.99992 6.99829 10.373 6.99829 10.8333C6.99829 11.2935 7.36907 11.6666 7.82645 11.6666H8.65461V16.6666C8.65461 17.1268 9.02537 17.4999 9.48276 17.4999C9.94015 17.4999 10.3109 17.1268 10.3109 16.6666V11.6666H11.9672C12.4246 11.6666 12.7954 11.2935 12.7954 10.8333C12.7954 10.373 12.4246 9.99992 11.9672 9.99992H10.3109V8.33325Z" fill="white"/>
<g clip-path="url(#clip0_1_404)">
<path fill-rule="evenodd" clip-rule="evenodd" d="M54.6842 11.6665C53.3147 11.6704 52.4306 13.2403 53.2743 14.4298C54.4826 16.133 56.6737 17.5 60.3317 17.5C66.0005 17.5 70.5509 12.8514 69.9139 7.35925L70.8472 5.48108C71.4944 4.17857 70.3697 2.69685 68.9506 2.98245L67.7176 3.23057C67.3908 3.05702 67.0525 2.92606 66.7634 2.83117C66.1999 2.64627 65.5179 2.5 64.8866 2.5C63.7526 2.5 62.7739 2.79276 61.9961 3.37994C61.2271 3.96053 60.794 4.72354 60.5563 5.42421C60.4468 5.74717 60.3738 6.07112 60.327 6.38203C59.887 6.24269 59.4384 6.05522 58.9992 5.82629C58.0027 5.30693 57.197 4.64852 56.7424 4.07126C55.9799 3.10275 54.3638 3.17456 53.7966 4.43351C52.9974 6.20789 53.2166 8.31122 53.9351 10.0108C54.1759 10.5803 54.4891 11.1434 54.8718 11.6652C54.8063 11.666 54.7436 11.6663 54.6842 11.6665ZM60.3316 15.8333C57.1322 15.8333 55.4778 14.6672 54.6224 13.4614C54.5839 13.4072 54.6227 13.3333 54.6888 13.3332C55.5591 13.3307 57.3454 13.2892 58.5236 12.5954C58.5845 12.5595 58.5711 12.4691 58.5042 12.4465C55.7578 11.5173 54.1967 7.58216 55.3051 5.12158C55.3306 5.06517 55.4059 5.05772 55.4442 5.10628C56.7103 6.71432 59.4787 8.28933 61.8872 8.33242C61.9395 8.33333 61.979 8.28558 61.9711 8.23361C61.874 7.60044 61.5034 4.16667 64.8865 4.16667C65.6944 4.16667 66.8964 4.56319 67.3391 4.96942C67.3595 4.98819 67.3873 4.99672 67.4145 4.99125L69.2753 4.61675C69.3429 4.60315 69.3965 4.67371 69.3657 4.73573L68.2115 7.05849C68.2034 7.07462 68.201 7.09312 68.204 7.11088C69.0124 11.6833 65.2906 15.8333 60.3316 15.8333Z" fill="white"/>
</g>
<path fill-rule="evenodd" clip-rule="evenodd" d="M116.978 3.33341H110.352C108.523 3.33341 107.04 4.8258 107.04 6.66675V13.3334C107.04 15.1743 108.523 16.6667 110.352 16.6667H116.978C118.807 16.6667 120.29 15.1743 120.29 13.3334V6.66675C120.29 4.8258 118.807 3.33341 116.978 3.33341ZM110.352 1.66675C107.608 1.66675 105.383 3.90532 105.383 6.66675V13.3334C105.383 16.0948 107.608 18.3334 110.352 18.3334H116.978C119.722 18.3334 121.946 16.0948 121.946 13.3334V6.66675C121.946 3.90532 119.722 1.66675 116.978 1.66675H110.352Z" fill="white"/>
<path d="M117.806 6.66667C118.263 6.66667 118.634 6.29357 118.634 5.83333C118.634 5.3731 118.263 5 117.806 5C117.348 5 116.978 5.3731 116.978 5.83333C116.978 6.29357 117.348 6.66667 117.806 6.66667Z" fill="white"/>
<path fill-rule="evenodd" clip-rule="evenodd" d="M117.806 9.99992C117.806 12.3011 115.952 14.1666 113.665 14.1666C111.378 14.1666 109.524 12.3011 109.524 9.99992C109.524 7.69874 111.378 5.83325 113.665 5.83325C115.952 5.83325 117.806 7.69874 117.806 9.99992ZM116.149 9.99992C116.149 11.3807 115.037 12.4999 113.665 12.4999C112.293 12.4999 111.18 11.3807 111.18 9.99992C111.18 8.61917 112.293 7.49992 113.665 7.49992C115.037 7.49992 116.149 8.61917 116.149 9.99992Z" fill="white"/>
<g clip-path="url(#clip1_1_404)">
<path d="M169.483 3.33325C169.025 3.33325 168.655 3.70635 168.655 4.16659C168.655 4.62682 169.025 4.99992 169.483 4.99992H172.795C173.253 4.99992 173.623 4.62682 173.623 4.16659C173.623 3.70635 173.253 3.33325 172.795 3.33325H169.483Z" fill="white"/>
<path fill-rule="evenodd" clip-rule="evenodd" d="M166.998 10.8334C166.998 8.53225 168.852 6.66675 171.139 6.66675C173.426 6.66675 175.28 8.53225 175.28 10.8334V11.6667C175.28 12.127 174.909 12.5001 174.452 12.5001H168.655C168.655 13.8808 169.767 15.0001 171.139 15.0001C171.717 15.0001 172.248 14.8017 172.67 14.4691C172.891 14.2952 173.151 14.1667 173.431 14.1667C174.141 14.1667 174.595 14.9043 174.098 15.4147C173.347 16.1872 172.298 16.6667 171.139 16.6667C168.852 16.6667 166.998 14.8012 166.998 12.5001V10.8334ZM171.139 8.33341C169.767 8.33341 168.655 9.45266 168.655 10.8334H173.624C173.624 9.45266 172.511 8.33341 171.139 8.33341Z" fill="white"/>
<path fill-rule="evenodd" clip-rule="evenodd" d="M157.06 4.99992V8.33325H161.201C162.116 8.33325 162.857 7.58706 162.857 6.66659C162.857 5.74611 162.116 4.99992 161.201 4.99992H157.06ZM163.52 9.04725C164.133 8.44225 164.514 7.59914 164.514 6.66659C164.514 4.82564 163.031 3.33325 161.201 3.33325H156.729C155.997 3.33325 155.404 3.93021 155.404 4.66659V15.238C155.404 16.027 156.04 16.6666 156.824 16.6666H161.201C163.488 16.6666 165.342 14.8011 165.342 12.4999C165.342 11.0632 164.619 9.79634 163.52 9.04725ZM157.06 9.99992V14.9999H161.201C162.573 14.9999 163.686 13.8807 163.686 12.4999C163.686 11.1192 162.573 9.99992 161.201 9.99992H157.06Z" fill="white"/>
</g>
<path fill-rule="evenodd" clip-rule="evenodd" d="M217.019 16.6667C220.678 16.6667 223.644 13.682 223.644 10.0001C223.644 6.31818 220.678 3.33341 217.019 3.33341C213.36 3.33341 210.394 6.31818 210.394 10.0001C210.394 13.682 213.36 16.6667 217.019 16.6667ZM217.019 18.3334C221.593 18.3334 225.3 14.6024 225.3 10.0001C225.3 5.39771 221.593 1.66675 217.019 1.66675C212.445 1.66675 208.737 5.39771 208.737 10.0001C208.737 14.6024 212.445 18.3334 217.019 18.3334Z" fill="white"/>
<path d="M219.896 17.8167C219.602 15.7082 219.112 13.7946 218.422 11.9858C216.734 12.8093 214.846 14.2482 212.25 16.8141C211.796 16.4916 211.376 16.1244 210.995 15.7187C213.722 13.013 215.804 11.3954 217.778 10.4486C217.524 9.89637 217.251 9.35196 216.958 8.81254C214.635 9.54937 211.986 9.93762 208.737 9.99312C208.738 9.42112 208.796 8.86254 208.905 8.32293C211.772 8.26112 214.091 7.92722 216.099 7.33376C215.167 5.82934 214.075 4.34437 212.82 2.81576C213.309 2.52552 213.831 2.28447 214.378 2.09937C215.644 3.66567 216.754 5.2051 217.704 6.77942C219.49 6.06937 221.072 5.11107 222.652 3.89098C223.058 4.27018 223.426 4.68987 223.75 5.14364C222.107 6.42239 220.431 7.45881 218.534 8.24011C218.813 8.76487 219.075 9.29546 219.32 9.83396C221.197 9.23554 223.044 9.17371 225.26 9.16737C225.287 9.44121 225.3 9.71904 225.3 10C225.3 10.2816 225.287 10.56 225.259 10.8344C223.119 10.842 221.532 10.9027 219.965 11.3775C220.638 13.1405 221.135 15.0042 221.455 17.0381C220.968 17.3499 220.446 17.6118 219.896 17.8167Z" fill="white"/>
<defs>
<clipPath id="clip0_1_404">
<rect width="19.8758" height="20" fill="white" transform="translate(52.05)"/>
</clipPath>
<clipPath id="clip1_1_404">
<rect width="19.8758" height="20" fill="white" transform="translate(155.404)"/>
</clipPath>
</defs>
</svg>
